<?xml version="1.0" standalone="no"?>
<!DOCTYPE svg PUBLIC "-//W3C//DTD SVG 20010904//EN"
 "http://www.w3.org/TR/2001/REC-SVG-20010904/DTD/svg10.dtd">
<svg version="1.0" xmlns="http://www.w3.org/2000/svg"
 width="260.000000pt" height="260.000000pt" viewBox="0 0 260.000000 260.000000"
 preserveAspectRatio="xMidYMid meet">
<metadata>
Created by potrace 1.14, written by Peter Selinger 2001-2017
</metadata>
<g transform="translate(0.000000,260.000000) scale(0.100000,-0.100000)"
fill="#000000" stroke="none">
<path d="M1041 2460 c-87 -26 -230 -122 -266 -177 -15 -24 -34 -48 -41 -54
-25 -20 -36 -110 -23 -185 11 -64 13 -158 4 -204 -2 -10 2 -57 9 -104 11 -73
18 -92 49 -132 26 -33 37 -58 37 -80 0 -18 5 -36 10 -39 6 -3 10 -24 10 -46 0
-22 -4 -38 -9 -34 -5 3 -4 -7 4 -22 7 -16 15 -48 17 -73 2 -25 5 -47 8 -50 8
-8 60 -224 60 -249 0 -43 -148 -301 -173 -301 -51 0 -411 -240 -542 -362 -16
-15 -35 -28 -42 -28 -6 0 -15 -9 -18 -20 -4 -11 -11 -17 -17 -14 -6 4 -5 9 3
15 8 5 -6 6 -34 4 -45 -5 -47 -4 -48 23 -1 17 -3 20 -6 9 -5 -20 -19 -22 -26
-4 -3 6 -6 -65 -6 -160 l-1 -172 1300 0 c1223 0 1300 1 1300 17 0 29 -12 62
-20 57 -5 -3 -6 4 -3 14 3 12 -12 53 -36 100 -23 44 -41 87 -41 95 0 24 -40
106 -52 106 -6 0 -8 3 -5 6 8 9 -20 34 -106 92 -129 89 -163 107 -247 131
-141 39 -253 72 -282 83 -15 5 -32 7 -39 2 -7 -4 -10 -3 -6 3 4 6 -13 16 -39
23 -25 7 -48 20 -51 29 -2 9 -14 34 -25 57 -19 37 -20 45 -8 114 8 48 26 99
51 147 22 41 39 81 39 90 0 32 23 91 34 87 7 -3 11 10 12 33 2 95 18 230 30
254 7 14 29 36 48 50 34 23 46 39 28 39 -4 0 -23 -11 -42 -25 -19 -14 -35 -25
-37 -25 -4 0 9 33 17 45 28 39 13 333 -23 470 -28 108 -56 154 -135 226 -68
61 -189 128 -232 127 -8 0 -40 5 -70 12 -103 22 -248 22 -319 0z m104 -346
c23 -14 106 -12 241 6 71 10 96 10 113 0 14 -7 38 -9 62 -5 46 8 104 -9 114
-33 4 -9 9 -33 12 -52 2 -19 13 -75 23 -125 32 -144 41 -268 35 -435 -9 -219
-9 -223 -37 -290 -28 -67 -66 -120 -86 -120 -5 0 -17 -9 -27 -20 -10 -12 -25
-18 -32 -16 -7 3 -13 2 -13 -3 0 -8 -54 -36 -56 -29 -1 1 -11 -5 -23 -16 -11
-10 -18 -23 -15 -27 3 -5 1 -9 -5 -9 -5 0 -12 8 -14 18 -4 15 -6 14 -12 -4 -4
-12 -19 -28 -33 -35 -15 -8 -33 -20 -40 -26 -17 -17 -42 -17 -42 0 0 9 -3 8
-9 -2 -7 -11 -15 -11 -45 0 -20 7 -36 17 -36 22 0 5 -6 7 -13 4 -7 -3 -19 4
-26 15 -9 15 -16 17 -23 10 -8 -8 -16 -5 -30 10 -10 12 -18 17 -18 12 0 -5 -4
-3 -8 3 -4 7 -17 14 -29 16 -11 1 -28 11 -37 20 -10 9 -21 17 -26 17 -5 0 -11
8 -14 18 -4 9 -22 35 -42 57 -19 22 -41 54 -48 71 -30 69 -61 354 -53 485 4
52 6 102 7 112 0 10 4 16 8 13 10 -6 9 195 -1 211 -4 6 -2 17 5 25 7 7 25 29
39 48 42 56 93 79 159 72 30 -3 64 -11 75 -18z m-138 -1201 c41 -38 101 -94
134 -125 40 -39 69 -59 87 -60 30 -1 33 -1 112 13 30 6 79 12 108 14 59 4 74
-9 54 -48 -7 -12 -16 -35 -22 -52 -10 -28 -8 -27 29 15 22 25 40 50 41 56 0 7
8 22 18 34 26 33 33 8 15 -55 -8 -27 -17 -68 -20 -90 -6 -40 -25 -73 -76 -128
-16 -17 -31 -43 -34 -59 -8 -38 -35 -33 -48 8 -6 18 -29 46 -55 65 -64 48
-202 137 -219 141 -8 2 -23 11 -33 21 -11 10 -25 16 -33 14 -7 -3 -12 1 -11
11 1 11 -6 16 -17 16 -10 -1 -16 1 -13 4 3 3 -11 21 -31 41 -21 20 -37 38 -37
41 1 3 -5 19 -11 35 -15 35 -30 155 -20 155 4 0 41 -30 82 -67z m-37 -159 c0
-8 -19 -13 -24 -6 -3 5 1 9 9 9 8 0 15 -2 15 -3z m667 -41 c-3 -10 -5 -4 -5
12 0 17 2 24 5 18 2 -7 2 -21 0 -30z m-447 -137 c0 -2 -8 -10 -17 -17 -16 -13
-17 -12 -4 4 13 16 21 21 21 13z m160 -100 c0 -2 -8 -10 -17 -17 -16 -13 -17
-12 -4 4 13 16 21 21 21 13z m-200 -70 c0 -2 -8 -10 -17 -17 -16 -13 -17 -12
-4 4 13 16 21 21 21 13z m20 -10 c0 -2 -8 -10 -17 -17 -16 -13 -17 -12 -4 4
13 16 21 21 21 13z m263 -37 c15 -24 1 -49 -26 -49 -33 0 -47 19 -36 48 10 27
46 27 62 1z m232 -22 c1 -7 6 -11 13 -9 13 2 16 -10 5 -21 -10 -11 -33 14 -33
36 0 21 15 15 15 -6z m-418 -95 c1 -15 -3 -33 -9 -39 -13 -16 -48 -17 -48 -2
0 5 -4 8 -8 5 -13 -8 -9 30 5 43 7 6 13 10 13 7 0 -3 10 -1 23 4 12 5 22 9 22
9 0 1 1 -11 2 -27z m311 -206 c-2 -12 -10 -21 -18 -21 -16 0 -25 28 -16 52 9
23 38 -4 34 -31z"/>
<path d="M1625 1755 c22 -19 41 -33 42 -31 9 9 -13 38 -38 51 -44 24 -46 18
-4 -20z"/>
<path d="M1445 1770 c-3 -5 1 -10 9 -10 9 0 16 5 16 10 0 6 -4 10 -9 10 -6 0
-13 -4 -16 -10z"/>
<path d="M964 1725 c-10 -8 -14 -15 -8 -15 5 0 19 7 30 15 10 8 14 15 8 15 -5
0 -19 -7 -30 -15z"/>
<path d="M1481 1691 c-8 -5 -11 -16 -8 -25 7 -18 72 -23 83 -5 4 8 9 8 17 0
17 -17 34 -13 40 7 3 15 -1 19 -22 19 -14 -1 -42 2 -61 6 -19 4 -41 3 -49 -2z"/>
<path d="M1043 1660 c-24 -10 -43 -21 -43 -23 0 -2 29 -4 65 -5 63 -2 65 -1
65 23 0 31 -27 33 -87 5z"/>
<path d="M1363 1387 c-14 -14 -25 -17 -53 -12 -71 12 -125 17 -118 10 4 -4 34
-19 65 -32 65 -26 94 -24 148 10 42 27 43 34 5 39 -21 3 -35 -1 -47 -15z"/>
<path d="M1152 1260 c-58 -14 -55 -27 11 -55 36 -15 38 -15 28 3 -16 31 0 40
67 38 34 -1 68 2 75 6 6 4 -15 8 -48 8 -33 0 -69 2 -80 4 -11 3 -35 1 -53 -4z"/>
<path d="M1398 1249 c37 -9 59 -29 31 -29 -6 0 -17 -7 -25 -15 -14 -13 -13
-15 7 -15 28 0 91 39 86 54 -2 6 -31 12 -73 13 -66 1 -67 1 -26 -8z"/>
<path d="M1210 1208 c0 -12 7 -18 23 -17 15 0 17 2 7 6 -8 3 -18 11 -22 17 -5
7 -8 4 -8 -6z"/>
<path d="M1415 590 c-3 -5 1 -10 10 -10 9 0 13 5 10 10 -3 6 -8 10 -10 10 -2
0 -7 -4 -10 -10z"/>
<path d="M1395 340 c-3 -5 -1 -10 4 -10 6 0 11 5 11 10 0 6 -2 10 -4 10 -3 0
-8 -4 -11 -10z"/>
<path d="M1210 230 c0 -5 5 -10 10 -10 6 0 10 5 10 10 0 6 -4 10 -10 10 -5 0
-10 -4 -10 -10z"/>
<path d="M1530 51 c0 -6 5 -13 10 -16 6 -3 10 1 10 9 0 9 -4 16 -10 16 -5 0
-10 -4 -10 -9z"/>
<path d="M690 1606 c0 -2 23 -18 50 -35 58 -36 68 -24 13 14 -34 22 -63 32
-63 21z"/>
</g>
</svg>
